<?xml version="1.0" encoding="UTF-8"?>
<svg width="50.898pt" height="31.684pt" version="1.1" viewBox="0 0 50.898 31.684" xmlns="http://www.w3.org/2000/svg" xmlns:xlink="http://www.w3.org/1999/xlink">
 <defs>
  <clipPath>
   <path d="m0.50391 0h8.5039v34.016h-8.5039z"/>
  </clipPath>
  <clipPath id="clip-3">
   <rect width="10" height="35"/>
  </clipPath>
  <g clip-path="url(#clip-3)"></g>
  <clipPath>
   <path d="m0.125 0h2.8359v34.016h-2.8359z"/>
  </clipPath>
  <clipPath id="clip-5">
   <rect width="3" height="35"/>
  </clipPath>
  <g clip-path="url(#clip-5)"></g>
  <clipPath>
   <path d="m0.45703 0h8.5039v34.016h-8.5039z"/>
  </clipPath>
  <clipPath id="clip-7">
   <rect width="9" height="35"/>
  </clipPath>
  <g clip-path="url(#clip-7)"></g>
  <clipPath>
   <path d="m0.50391 0h2.8359v34.016h-2.8359z"/>
  </clipPath>
  <clipPath id="clip-9">
   <rect width="4" height="35"/>
  </clipPath>
  <g clip-path="url(#clip-9)"></g>
 </defs>
 <g transform="translate(-114.11 -10.418)" fill="#b08e4c">
  <path d="m114.73 11.977h1.0117v-0.62109c0-0.11328-8e-3 -0.1875-0.0195-0.22266-0.0117-0.02344-0.0352-0.04687-0.0703-0.06641-0.043-0.02734-0.0937-0.03906-0.14453-0.03906h-0.0781v-0.05859h0.92969v0.05859h-0.0742c-0.0547 0-0.10157 0.01172-0.14844 0.03516-0.0312 0.01953-0.0547 0.04297-0.0703 0.07813-0.0117 0.03516-0.0156 0.10547-0.0156 0.21484v1.4023c0 0.10938 4e-3 0.18359 0.0195 0.21875 0.0117 0.02734 0.0312 0.04687 0.0664 0.06641 0.0469 0.02734 0.0937 0.03906 0.14844 0.03906h0.0742v0.05859h-0.92969v-0.05859h0.0781c0.0898 0 0.15235-0.02344 0.19532-0.07813 0.0234-0.03516 0.0391-0.11719 0.0391-0.24609v-0.66407h-1.0117v0.66406c0 0.10938 8e-3 0.18359 0.0234 0.21875 8e-3 0.02734 0.0312 0.04687 0.0664 0.06641 0.0469 0.02734 0.0937 0.03906 0.14453 0.03906h0.0781v0.05859h-0.92969v-0.05859h0.0781c0.0898 0 0.15234-0.02344 0.19531-0.07813 0.0234-0.03516 0.0391-0.11719 0.0391-0.24609v-1.4023c0-0.11328-8e-3 -0.1875-0.0234-0.22266-0.0117-0.02344-0.0312-0.04687-0.0664-0.06641-0.043-0.02734-0.0937-0.03906-0.14453-0.03906h-0.0781v-0.05859h0.92969v0.05859h-0.0781c-0.0508 0-0.0977 0.01172-0.14453 0.03516-0.0312 0.01953-0.0547 0.04297-0.0703 0.07813-0.0117 0.03516-0.0195 0.10547-0.0195 0.21484z"/>
  <path d="m118.13 11.035c-0.19532 0-0.35157 0.07031-0.46875 0.21875-0.14844 0.17578-0.22266 0.4375-0.22266 0.78906 0 0.35156 0.0781 0.625 0.23047 0.81641 0.11719 0.14453 0.26953 0.21875 0.46094 0.21875 0.20312 0 0.37109-0.07813 0.5039-0.23828 0.13672-0.16016 0.19922-0.41016 0.19922-0.75391 0-0.37109-0.0703-0.65234-0.21875-0.83203-0.11719-0.14453-0.27734-0.21875-0.48437-0.21875m0.0273-0.11719c0.28516 0 0.52734 0.10547 0.73438 0.32031 0.20703 0.21484 0.3125 0.48438 0.3125 0.80469 0 0.32812-0.10547 0.60156-0.31641 0.82031-0.20703 0.21875-0.46094 0.32812-0.75391 0.32812-0.30078 0-0.55078-0.10547-0.7539-0.32031-0.20313-0.21094-0.30469-0.48438-0.30469-0.82422 0-0.34375 0.11719-0.625 0.35156-0.84375 0.20313-0.19141 0.44922-0.28516 0.73047-0.28516"/>
  <path d="m121.76 10.969 0.0234 0.50781h-0.0625c-0.0117-0.08984-0.0273-0.15234-0.0469-0.19141-0.0352-0.0625-0.0781-0.10547-0.13282-0.13672-0.0547-0.03125-0.1289-0.04297-0.21875-0.04297h-0.30468v1.6602c0 0.13281 0.0156 0.21484 0.043 0.25 0.043 0.04297 0.10547 0.06641 0.1875 0.06641h0.0742v0.05859h-0.92187v-0.05859h0.0781c0.0937 0 0.15625-0.02734 0.19532-0.08203 0.0234-0.03516 0.0352-0.11328 0.0352-0.23438v-1.6602h-0.26172c-0.10156 0-0.17187 0.0078-0.21484 0.01953-0.0586 0.02344-0.10156 0.0625-0.14453 0.11719-0.0391 0.05859-0.0625 0.13672-0.0703 0.23438h-0.0586l0.0234-0.50781z"/>
  <path d="m123.08 11.086v1.6914c0 0.09766 4e-3 0.15625 0.0117 0.17969 8e-3 0.01953 0.0234 0.03516 0.0469 0.04687 0.0195 0.01563 0.0586 0.01953 0.12109 0.01953h0.36719c0.12109 0 0.21094-0.0078 0.26953-0.02734 0.0547-0.01563 0.10938-0.05078 0.16016-0.09766 0.0664-0.06641 0.13281-0.16797 0.20312-0.30078h0.0625l-0.1875 0.54297h-1.6758v-0.05859h0.0781c0.0508 0 0.10156-0.01172 0.14453-0.03516 0.0352-0.01953 0.0586-0.04297 0.0703-0.07813 0.0117-0.03125 0.0195-0.10547 0.0195-0.21094v-1.4102c0-0.14062-0.0156-0.22266-0.043-0.25781-0.0391-0.04297-0.10156-0.0625-0.1914-0.0625h-0.0781v-0.05859h1.6758l0.0234 0.47656h-0.0625c-0.0195-0.11328-0.0469-0.19531-0.0742-0.23828-0.0273-0.04297-0.0664-0.07422-0.12109-0.09766-0.043-0.01563-0.11719-0.02344-0.22656-0.02344z"/>
  <path d="m126.81 12.539 0.0508 0.01172-0.1836 0.58984h-1.6836v-0.05859h0.082c0.0898 0 0.15625-0.03125 0.19531-0.08984 0.0234-0.03516 0.0352-0.11328 0.0352-0.23828v-1.3984c0-0.14062-0.0156-0.22266-0.0469-0.25781-0.0391-0.04687-0.10156-0.07031-0.18359-0.07031h-0.082v-0.05859h0.98437v0.05859c-0.11718 0-0.19531 0.01172-0.24609 0.03125-0.0469 0.02344-0.0781 0.05078-0.0937 0.08594s-0.0234 0.11328-0.0234 0.24609v1.3633c0 0.08984 8e-3 0.15234 0.0234 0.18359 0.0117 0.02344 0.0312 0.03906 0.0586 0.05078 0.0273 0.01172 0.10938 0.01563 0.25 0.01563h0.16016c0.16406 0 0.28125-0.01172 0.35156-0.03906 0.0664-0.02344 0.12891-0.06641 0.1836-0.12891 0.0547-0.0625 0.10937-0.16016 0.16796-0.29688"/>
  <path d="m128.96 10.918v0.75391h-0.0586c-0.0195-0.14453-0.0547-0.26172-0.10547-0.34766-0.0469-0.08594-0.12109-0.15234-0.21094-0.20312-0.0937-0.05078-0.1875-0.07422-0.28515-0.07422-0.10938 0-0.20313 0.03516-0.27735 0.10156-0.0703 0.06641-0.10937 0.14453-0.10937 0.23047 0 0.06641 0.0234 0.12891 0.0703 0.18359 0.0664 0.07813 0.22266 0.18359 0.47266 0.32031 0.20312 0.10938 0.33984 0.19141 0.41797 0.25 0.0703 0.05859 0.1289 0.125 0.16796 0.20703 0.043 0.07813 0.0625 0.16016 0.0625 0.24609 0 0.16797-0.0664 0.30859-0.1914 0.42578-0.12891 0.12109-0.29297 0.17969-0.4961 0.17969-0.0625 0-0.12109-0.0039-0.17578-0.01563-0.0352-0.0039-0.10156-0.02344-0.20703-0.05859-0.10156-0.03125-0.16797-0.05078-0.19922-0.05078-0.0234 0-0.043 0.0078-0.0625 0.02734-0.0117 0.01563-0.0234 0.04687-0.0312 0.09766h-0.0625v-0.74609h0.0625c0.0273 0.15625 0.0625 0.27344 0.10938 0.35156 0.0469 0.07813 0.12109 0.14062 0.21484 0.19141 0.0977 0.05078 0.20313 0.07813 0.32031 0.07813 0.13282 0 0.23829-0.03516 0.31641-0.10547 0.0781-0.07031 0.11719-0.15234 0.11719-0.25 0-0.05469-0.0156-0.10547-0.0469-0.16016-0.0273-0.05859-0.0742-0.10938-0.13672-0.15625-0.0391-0.03125-0.15234-0.09766-0.33984-0.20312-0.1875-0.10547-0.3164-0.1875-0.39844-0.25-0.0781-0.0625-0.13671-0.12891-0.17578-0.20312-0.043-0.07422-0.0625-0.16016-0.0625-0.24609 0-0.15625 0.0586-0.29297 0.17969-0.40234 0.12109-0.11328 0.27344-0.17188 0.45703-0.17188 0.11328 0 0.23828 0.02734 0.36719 0.08594 0.0586 0.02734 0.10156 0.03906 0.125 0.03906 0.0273 0 0.0508-0.0078 0.0703-0.02344 0.0156-0.01563 0.0312-0.05078 0.043-0.10156z"/>
  <path d="m132.46 12.023h0.0547c0.0156 0.0039 0.0273 0.0039 0.0352 0.0039 0.21093 0 0.36328-0.04687 0.46875-0.13672 0.10547-0.08984 0.16015-0.20312 0.16015-0.34375 0-0.13281-0.043-0.24609-0.1289-0.33203-0.0859-0.08203-0.19532-0.125-0.33594-0.125-0.0625 0-0.14844 0.01172-0.25391 0.03125zm1.5469 1.1172h-0.58203l-0.73438-1.0156c-0.0547 0.0039-0.10156 0.0039-0.13281 0.0039h-0.0469c-0.0156 0-0.0312-0.0039-0.0508-0.0039v0.63281c0 0.13672 0.0195 0.22266 0.0469 0.25391 0.0391 0.04687 0.10156 0.07031 0.18359 0.07031h0.082v0.05859h-0.92968v-0.05859h0.082c0.0898 0 0.15625-0.03125 0.19531-0.08984 0.0234-0.03125 0.0352-0.10938 0.0352-0.23438v-1.4023c0-0.14062-0.0156-0.22656-0.043-0.25781-0.043-0.04687-0.10547-0.07031-0.1875-0.07031h-0.082v-0.05859h0.79296c0.23047 0 0.39844 0.01563 0.51172 0.05078 0.10547 0.03125 0.19922 0.09375 0.27735 0.18359 0.0742 0.09375 0.11328 0.19922 0.11328 0.32422 0 0.13281-0.043 0.25-0.12891 0.34766-0.0898 0.09766-0.22265 0.16797-0.40625 0.20703l0.44922 0.625c0.10156 0.14453 0.19141 0.23828 0.26563 0.28516 0.0742 0.04687 0.16796 0.07813 0.28906 0.08984z"/>
  <path d="m135.2 11.086v0.85938h0.47656c0.125 0 0.21094-0.01953 0.25-0.05469 0.0586-0.05078 0.0859-0.13672 0.0937-0.26172h0.0586v0.75781h-0.0586c-0.0156-0.10547-0.0312-0.17578-0.0469-0.20312-0.0195-0.03906-0.0469-0.06641-0.0937-0.08984-0.043-0.01953-0.10938-0.03125-0.20313-0.03125h-0.47656v0.71484c0 0.09766 4e-3 0.15625 0.0156 0.17969 8e-3 0.01953 0.0234 0.03516 0.043 0.04687 0.0234 0.01563 0.0625 0.01953 0.12109 0.01953h0.37109c0.1211 0 0.21094-0.0078 0.26563-0.02734 0.0547-0.01563 0.10937-0.05078 0.16015-0.09766 0.0664-0.06641 0.13672-0.16797 0.20313-0.30078h0.0664l-0.1875 0.54297h-1.6758v-0.05859h0.0781c0.0508 0 0.0977-0.01172 0.14453-0.03516 0.0352-0.01953 0.0586-0.04297 0.0703-0.07813 0.0117-0.03125 0.0156-0.10547 0.0156-0.21094v-1.4102c0-0.14062-0.0117-0.22266-0.0391-0.25781-0.0391-0.04297-0.10157-0.0625-0.19141-0.0625h-0.0781v-0.05859h1.6758l0.0234 0.47656h-0.0625c-0.0234-0.11328-0.0469-0.19531-0.0742-0.23828-0.0273-0.04297-0.0664-0.07422-0.12109-0.09766-0.043-0.01563-0.11719-0.02344-0.22656-0.02344z"/>
  <path d="m138.55 10.918v0.75391h-0.0625c-0.0195-0.14453-0.0508-0.26172-0.10156-0.34766-0.0508-0.08594-0.1211-0.15234-0.21094-0.20312-0.0937-0.05078-0.1875-0.07422-0.28516-0.07422-0.11328 0-0.20312 0.03516-0.27734 0.10156-0.0742 0.06641-0.10937 0.14453-0.10937 0.23047 0 0.06641 0.0234 0.12891 0.0703 0.18359 0.0664 0.07813 0.22265 0.18359 0.47265 0.32031 0.20313 0.10938 0.33985 0.19141 0.41407 0.25 0.0742 0.05859 0.13281 0.125 0.17187 0.20703 0.043 0.07813 0.0586 0.16016 0.0586 0.24609 0 0.16797-0.0625 0.30859-0.1875 0.42578-0.12891 0.12109-0.29297 0.17969-0.4961 0.17969-0.0625 0-0.12109-0.0039-0.17578-0.01563-0.0352-0.0039-0.10156-0.02344-0.20703-0.05859-0.10547-0.03125-0.16797-0.05078-0.19531-0.05078-0.0273 0-0.0469 0.0078-0.0664 0.02734-0.0156 0.01563-0.0273 0.04687-0.0312 0.09766h-0.0625v-0.74609h0.0625c0.0234 0.15625 0.0625 0.27344 0.10938 0.35156 0.0469 0.07813 0.11718 0.14062 0.21484 0.19141 0.0977 0.05078 0.20312 0.07813 0.32031 0.07813 0.13281 0 0.23828-0.03516 0.31641-0.10547 0.0781-0.07031 0.11328-0.15234 0.11328-0.25 0-0.05469-0.0117-0.10547-0.043-0.16016-0.0273-0.05859-0.0742-0.10938-0.13672-0.15625-0.043-0.03125-0.15625-0.09766-0.33984-0.20312-0.1875-0.10547-0.32031-0.1875-0.39844-0.25-0.0781-0.0625-0.13672-0.12891-0.17578-0.20312-0.043-0.07422-0.0625-0.16016-0.0625-0.24609 0-0.15625 0.0586-0.29297 0.17969-0.40234 0.12109-0.11328 0.26953-0.17188 0.45703-0.17188 0.11328 0 0.23828 0.02734 0.36719 0.08594 0.0586 0.02734 0.10156 0.03906 0.125 0.03906 0.0273 0 0.0508-0.0078 0.0664-0.02344 0.0195-0.01563 0.0352-0.05078 0.043-0.10156z"/>
  <path d="m140.57 11.035c-0.19531 0-0.35156 0.07031-0.46875 0.21875-0.14844 0.17578-0.21875 0.4375-0.21875 0.78906 0 0.35156 0.0742 0.625 0.22656 0.81641 0.11719 0.14453 0.26954 0.21875 0.46094 0.21875 0.20703 0 0.375-0.07813 0.50781-0.23828 0.13282-0.16016 0.19922-0.41016 0.19922-0.75391 0-0.37109-0.0742-0.65234-0.21875-0.83203-0.11718-0.14453-0.28125-0.21875-0.48828-0.21875m0.0312-0.11719c0.28125 0 0.52344 0.10547 0.73047 0.32031 0.20703 0.21484 0.3125 0.48438 0.3125 0.80469 0 0.32812-0.10547 0.60156-0.3125 0.82031-0.21094 0.21875-0.46094 0.32812-0.75781 0.32812-0.29688 0-0.55078-0.10547-0.75391-0.32031-0.20312-0.21094-0.30469-0.48438-0.30469-0.82422 0-0.34375 0.11719-0.625 0.35157-0.84375 0.20312-0.19141 0.44922-0.28516 0.73437-0.28516"/>
  <path d="m142.97 12.023h0.0547c0.0117 0.0039 0.0273 0.0039 0.0352 0.0039 0.20703 0 0.36328-0.04687 0.46875-0.13672 0.10547-0.08984 0.16016-0.20312 0.16016-0.34375 0-0.13281-0.043-0.24609-0.12891-0.33203-0.0859-0.08203-0.19922-0.125-0.33594-0.125-0.0625 0-0.14844 0.01172-0.2539 0.03125zm1.543 1.1172h-0.57812l-0.73828-1.0156c-0.0508 0.0039-0.0977 0.0039-0.12891 0.0039h-0.0469c-0.0156 0-0.0312-0.0039-0.0508-0.0039v0.63281c0 0.13672 0.0156 0.22266 0.0469 0.25391 0.0391 0.04687 0.10156 0.07031 0.17969 0.07031h0.0859v0.05859h-0.92969v-0.05859h0.082c0.0898 0 0.15625-0.03125 0.19531-0.08984 0.0234-0.03125 0.0352-0.10938 0.0352-0.23438v-1.4023c0-0.14062-0.0156-0.22656-0.0469-0.25781-0.0391-0.04687-0.10156-0.07031-0.18359-0.07031h-0.082v-0.05859h0.79297c0.23047 0 0.39843 0.01563 0.50781 0.05078 0.10937 0.03125 0.20312 0.09375 0.28125 0.18359 0.0742 0.09375 0.11328 0.19922 0.11328 0.32422 0 0.13281-0.043 0.25-0.12891 0.34766-0.0898 0.09766-0.22265 0.16797-0.40625 0.20703l0.44922 0.625c0.10157 0.14453 0.19141 0.23828 0.26563 0.28516 0.0742 0.04687 0.16797 0.07813 0.28515 0.08984z"/>
  <path d="m146.92 10.969 0.0234 0.50781h-0.0625c-0.0117-0.08984-0.0273-0.15234-0.0469-0.19141-0.0312-0.0625-0.0781-0.10547-0.13281-0.13672-0.0547-0.03125-0.125-0.04297-0.21875-0.04297h-0.30469v1.6602c0 0.13281 0.0156 0.21484 0.043 0.25 0.043 0.04297 0.10547 0.06641 0.1875 0.06641h0.0742v0.05859h-0.91797v-0.05859h0.0742c0.0937 0 0.16015-0.02734 0.19531-0.08203 0.0234-0.03516 0.0352-0.11328 0.0352-0.23438v-1.6602h-0.26172c-0.0977 0-0.17188 0.0078-0.21485 0.01953-0.0547 0.02344-0.10156 0.0625-0.14062 0.11719-0.043 0.05859-0.0664 0.13672-0.0703 0.23438h-0.0625l0.0273-0.50781z"/>
  <path d="m149.06 10.918v0.75391h-0.0625c-0.0195-0.14453-0.0508-0.26172-0.10156-0.34766-0.0508-0.08594-0.12109-0.15234-0.21484-0.20312-0.0898-0.05078-0.1836-0.07422-0.28516-0.07422-0.10937 0-0.20312 0.03516-0.27344 0.10156-0.0742 0.06641-0.10937 0.14453-0.10937 0.23047 0 0.06641 0.0234 0.12891 0.0703 0.18359 0.0625 0.07813 0.22266 0.18359 0.47266 0.32031 0.20312 0.10938 0.33984 0.19141 0.41406 0.25 0.0742 0.05859 0.13281 0.125 0.17187 0.20703 0.0391 0.07813 0.0586 0.16016 0.0586 0.24609 0 0.16797-0.0625 0.30859-0.19141 0.42578-0.125 0.12109-0.28906 0.17969-0.49219 0.17969-0.0625 0-0.12109-0.0039-0.17578-0.01563-0.0352-0.0039-0.10156-0.02344-0.20703-0.05859-0.10547-0.03125-0.16797-0.05078-0.19922-0.05078-0.0273 0-0.0469 0.0078-0.0625 0.02734-0.0156 0.01563-0.0273 0.04687-0.0352 0.09766h-0.0586v-0.74609h0.0586c0.0273 0.15625 0.0664 0.27344 0.11328 0.35156 0.0469 0.07813 0.12109 0.14062 0.21484 0.19141 0.0977 0.05078 0.20313 0.07813 0.32031 0.07813 0.13282 0 0.23829-0.03516 0.31641-0.10547 0.0781-0.07031 0.11328-0.15234 0.11328-0.25 0-0.05469-0.0156-0.10547-0.043-0.16016-0.0273-0.05859-0.0742-0.10938-0.13672-0.15625-0.043-0.03125-0.15625-0.09766-0.33984-0.20312-0.1875-0.10547-0.32031-0.1875-0.39844-0.25-0.0781-0.0625-0.13672-0.12891-0.17968-0.20312-0.0391-0.07422-0.0586-0.16016-0.0586-0.24609 0-0.15625 0.0586-0.29297 0.17969-0.40234 0.11719-0.11328 0.27344-0.17188 0.45703-0.17188 0.11328 0 0.23828 0.02734 0.36719 0.08594 0.0586 0.02734 0.10156 0.03906 0.125 0.03906 0.0273 0 0.0508-0.0078 0.0664-0.02344 0.0195-0.01563 0.0352-0.05078 0.043-0.10156z"/>
  <path d="m153.9 10.918 0.0586 0.6875h-0.0586c-0.0547-0.17188-0.12891-0.30078-0.21875-0.38672-0.12891-0.125-0.29688-0.1875-0.5-0.1875-0.27735 0-0.48438 0.10938-0.62891 0.32812-0.12109 0.18359-0.18359 0.40625-0.18359 0.66016 0 0.20703 0.0391 0.39844 0.12109 0.56641 0.0781 0.17188 0.18359 0.29688 0.31641 0.37891 0.1289 0.07813 0.26172 0.11719 0.39843 0.11719 0.0781 0 0.15625-0.0078 0.23438-0.03125 0.0742-0.01953 0.14453-0.04687 0.21484-0.08984v-0.625c0-0.10938-8e-3 -0.18359-0.0234-0.21875-0.0195-0.03125-0.043-0.05469-0.0781-0.07422-0.0352-0.01953-0.0977-0.02734-0.18359-0.02734v-0.05859h0.84375v0.05859h-0.043c-0.082 0-0.14063 0.02734-0.17188 0.08594-0.0195 0.03906-0.0312 0.11719-0.0312 0.23438v0.66405c-0.12109 0.06641-0.24218 0.11328-0.36328 0.14453-0.12109 0.03125-0.2539 0.04687-0.39844 0.04687-0.42187 0-0.73828-0.13281-0.95703-0.40234-0.16414-0.20312-0.24617-0.4375-0.24617-0.69921 0-0.19141 0.0469-0.375 0.13672-0.55078 0.10937-0.21094 0.25781-0.36719 0.44922-0.48047 0.16015-0.09375 0.34765-0.14062 0.5625-0.14062 0.082 0 0.15234 0.0078 0.21875 0.01953 0.0625 0.01172 0.15625 0.04297 0.27343 0.08594 0.0586 0.02344 0.0977 0.03125 0.1211 0.03125 0.0195 0 0.0352-0.0078 0.0508-0.02734 0.0156-0.01953 0.0234-0.05469 0.0273-0.10938z"/>
  <path d="m155.46 12.023h0.0547c0.0156 0.0039 0.0273 0.0039 0.0352 0.0039 0.20704 0 0.36329-0.04687 0.46875-0.13672 0.10547-0.08984 0.15625-0.20312 0.15625-0.34375 0-0.13281-0.0391-0.24609-0.125-0.33203-0.0859-0.08203-0.19531-0.125-0.33593-0.125-0.0625 0-0.14453 0.01172-0.25391 0.03125zm1.5469 1.1172h-0.58204l-0.73437-1.0156c-0.0586 0.0039-0.10156 0.0039-0.13281 0.0039h-0.0469c-0.0156 0-0.0312-0.0039-0.0508-0.0039v0.63281c0 0.13672 0.0156 0.22266 0.0469 0.25391 0.0391 0.04687 0.10156 0.07031 0.18359 0.07031h0.0859v0.05859h-0.9336v-0.05859h0.082c0.0937 0 0.15625-0.03125 0.19532-0.08984 0.0234-0.03125 0.0352-0.10938 0.0352-0.23438v-1.4023c0-0.14062-0.0156-0.22656-0.043-0.25781-0.043-0.04687-0.10546-0.07031-0.1875-0.07031h-0.082v-0.05859h0.78907c0.23437 0 0.40234 0.01563 0.51562 0.05078 0.10938 0.03125 0.20313 0.09375 0.27734 0.18359 0.0742 0.09375 0.11329 0.19922 0.11329 0.32422 0 0.13281-0.043 0.25-0.12891 0.34766-0.0898 0.09766-0.22266 0.16797-0.40625 0.20703l0.44922 0.625c0.10156 0.14453 0.1914 0.23828 0.26562 0.28516 0.0742 0.04687 0.16797 0.07813 0.28907 0.08984z"/>
  <path d="m158.67 11.035c-0.19531 0-0.35156 0.07031-0.46875 0.21875-0.14453 0.17578-0.21875 0.4375-0.21875 0.78906 0 0.35156 0.0742 0.625 0.22657 0.81641 0.11718 0.14453 0.27343 0.21875 0.46484 0.21875 0.20313 0 0.37109-0.07813 0.50391-0.23828 0.13281-0.16016 0.19922-0.41016 0.19922-0.75391 0-0.37109-0.0742-0.65234-0.21875-0.83203-0.11719-0.14453-0.28125-0.21875-0.48829-0.21875m0.0312-0.11719c0.28125 0 0.52735 0.10547 0.73438 0.32031 0.20703 0.21484 0.30859 0.48438 0.30859 0.80469 0 0.32812-0.10547 0.60156-0.3125 0.82031s-0.46093 0.32812-0.75781 0.32812c-0.29687 0-0.54687-0.10547-0.75391-0.32031-0.20312-0.21094-0.30468-0.48438-0.30468-0.82422 0-0.34375 0.11718-0.625 0.35156-0.84375 0.20703-0.19141 0.44922-0.28516 0.73437-0.28516"/>
  <path d="m162.73 10.969v0.05859c-0.0781 0.01563-0.13671 0.03906-0.17578 0.07422-0.0586 0.05078-0.10547 0.13281-0.15234 0.24219l-0.75781 1.8477h-0.0586l-0.8125-1.875c-0.043-0.09375-0.0742-0.15625-0.0898-0.17578-0.0273-0.03125-0.0586-0.05859-0.0977-0.07813-0.0391-0.01953-0.0937-0.03125-0.16015-0.03516v-0.05859h0.89062v0.05859c-0.10156 0.0078-0.16797 0.02734-0.19531 0.05078-0.0312 0.02734-0.0469 0.05859-0.0469 0.09375 0 0.05469 0.0273 0.13672 0.0742 0.25391l0.55469 1.2734 0.51172-1.2617c0.0508-0.12109 0.0742-0.20703 0.0742-0.25781 0-0.02734-0.0156-0.05859-0.0469-0.08594-0.0312-0.03125-0.082-0.05078-0.15625-0.0625-4e-3 0-0.0156 0-0.0273-0.0039v-0.05859z"/>
  <path d="m163.97 12.031c0.0586 0.01172 0.10937 0.01953 0.15234 0.02344 0.0469 0.0078 0.082 0.0078 0.11328 0.0078 0.10938 0 0.20703-0.04297 0.28906-0.125 0.0781-0.08984 0.1211-0.19922 0.1211-0.33594 0-0.09375-0.0195-0.18359-0.0586-0.26172-0.0391-0.08203-0.0937-0.14062-0.16406-0.18359-0.0703-0.03906-0.14844-0.05859-0.24219-0.05859-0.0508 0-0.125 0.01172-0.21093 0.03125zm0 0.09375v0.63281c0 0.13672 0.0195 0.21875 0.0469 0.25391 0.0391 0.04687 0.10156 0.07031 0.18359 0.07031h0.0859v0.05859h-0.93359v-0.05859h0.082c0.0937 0 0.15625-0.02734 0.19922-0.08984 0.0195-0.03125 0.0312-0.10938 0.0312-0.23438v-1.4062c0-0.13672-0.0156-0.22266-0.043-0.25391-0.043-0.04687-0.10547-0.07031-0.1875-0.07031h-0.082v-0.05859h0.79687c0.19532 0 0.34766 0.01953 0.46094 0.05859 0.11328 0.04297 0.20703 0.10938 0.28516 0.20312 0.0742 0.09766 0.11328 0.20703 0.11328 0.33984 0 0.17578-0.0586 0.32031-0.17578 0.43359-0.11719 0.10938-0.28125 0.16406-0.4961 0.16406-0.0508 0-0.10937-0.0039-0.16797-0.01172-0.0625-0.0078-0.1289-0.01953-0.19921-0.03125"/>
  <path d="m130.04 12.195 0.42187 0.42188 0.41797-0.42188-0.41797-0.42188z"/>
  <path d="m150.18 12.195 0.42187 0.42188 0.41797-0.42188-0.41797-0.42188z"/>
  <path d="m164.34 35.441c-1.4531 1.9453-2.8516 3.0547-4.082 3.7383-1.2969 0.72266-2.8125 1.0859-4.5 1.0859-1.9414 0-3.6914-0.46484-5.2109-1.3789-0.14843-0.08984-0.2539-0.17188-0.40234-0.25781-0.0586-0.03516-0.12109-0.05859-0.19531 0.01172-0.51953 0.46875-1.0625 0.91016-1.6484 1.3672-0.0664 0.05469-0.0195 0.10938 0.0352 0.14062 1.7226 0.96094 3.8047 1.4531 6.1055 1.4531 2.2852 0 4.2852-0.51562 5.9414-1.5312 1.5938-0.97656 2.9648-2.3711 4.1836-4.4297 0.0703-0.12109 0.0742-0.25391 0-0.29688-0.1211-0.07031-0.20313 0.0625-0.22657 0.09766"/>
  <path d="m149.8 19.312c-0.66796 0.69141-1.2539 1.5312-1.7344 2.5312-0.10156 0.20703-0.0547 0.38281-0.0273 0.44141 0.86718 1.7617 1.3906 4.0234 1.3906 6.4219 0 2.6875-0.55469 4.9922-1.6523 6.8789-4e-3 0.0039-4e-3 0.0078-8e-3 0.0078-0.0937 0.16406-0.1875 0.32031-0.29296 0.47656-8e-3 0.0078-0.0117 0.01953-0.0195 0.03125-0.0937 0.14453-0.19921 0.28906-0.30078 0.42969-0.0156 0.01953-0.0273 0.03906-0.0391 0.05859-0.0977 0.12891-0.19922 0.25391-0.30078 0.37891-0.0234 0.02734-0.0469 0.05469-0.0664 0.08203-0.125 0.14844-0.2539 0.29297-0.38672 0.43359-0.11328 0.11719-0.22656 0.23047-0.33984 0.33984-0.0508 0.05078-0.10547 0.10156-0.16016 0.14844-0.0312 0.03125-0.0625 0.0625-0.0977 0.09375h-4e-3c-1.9414 1.7695-4.3242 2.5625-7.1289 2.5625-0.71094 0-1.5352-0.06641-2.6797-0.21484-0.0586-0.0078-0.14453 0.02734-0.17969 0.09766-0.0625 0.12891-0.36719 0.78125-0.42578 0.9375-0.043 0.12109 0.0117 0.15234 0.0742 0.15234h3.3203c5.0664 0 8.8867-1.3633 11.352-4.0469 2.1953-2.4062 3.3086-5.4492 3.3086-9.043 0-2.6797-0.625-5.0742-1.8594-7.1172-0.41797-0.69531-0.96875-1.4922-1.4883-2.0625-0.043-0.04687-0.13672-0.14062-0.25391-0.01953"/>
  <path d="m137.32 35.129c-0.49219 1.2148-2.5469 5.9102-2.6484 6.1094-0.12891 0.25391-0.32422 0.36328-0.63672 0.36328h-19.703c-0.0508 0-0.21485-0.01172-0.21485-0.17969 0-0.16406 0.16797-0.17578 0.21485-0.17969h0.53906c1.2226 0 2.1133-0.40234 2.6484-1.2031 0.30859-0.46094 0.45703-1.4492 0.45703-3.0195v-17.023c0-1.7266-0.20313-2.6602-0.61719-3.1289-0.5625-0.62109-1.3984-0.9375-2.4883-0.9375h-0.57422c-0.0977 0-0.17969-0.08203-0.17969-0.17969 0-0.10156 0.082-0.17969 0.17969-0.17969h11.289c0.0937 0 0.17188 0.07422 0.17578 0.16406 4e-3 0.0039 4e-3 0.0078 4e-3 0.01563 0 0.0039 0 0.0078-4e-3 0.01172-4e-3 0.09375-0.082 0.16797-0.17578 0.16797-1.25 0.01172-2.125 0.14844-2.6758 0.41406-0.625 0.29297-1.0586 0.67969-1.2969 1.1445-0.23047 0.45312-0.34375 0.88281-0.34375 2.5078v17.16c0 2.8164 1.8867 3.5078 4.5508 3.5078 2.6602 0 4.2266 0.0625 5.9531-0.51172 2.0156-0.66797 4.0195-3.3945 4.8398-5.0156 0.0664-0.12891 0.19922-0.27734 0.42969-0.27734 0.23438 0 0.33594 0.12891 0.27735 0.26953"/>
  <path d="m147.3 16.938c-0.0937-0.04297-2.4844-1.25-9.0195-1.3594-0.0156-0.0039-0.0273-0.0078-0.043-0.0078h-11.316c-0.0977 0-0.17969 0.07813-0.17969 0.17969 0 0.09766 0.082 0.17578 0.17969 0.17578h0.60546c1.0859 0 1.9219 0.32031 2.4844 0.94531 0.41797 0.46484 0.61719 1.3984 0.61719 3.125v19.664c0 0.10938 0.0859 0.12891 0.14062 0.11719 0.41406-0.08594 2.1055-0.97266 3.1055-2.0352 0.0156-0.01172 0.0469-0.08203 0.0469-0.15625 0-0.07813 4e-3 -18.102 0.0117-18.312v0.19141c0-1.4102 1.8516-2.7852 5.4961-2.7852 3.2852 0 5.2344 1.6992 5.7852 2.168 0.10938 0.08984 0.1875 0.05078 0.26953-0.01953 0.0195-0.01563 0.45313-0.44141 0.88282-0.82031 0.41406-0.36719 0.96875-0.78906 0.98828-0.81641 0.0781-0.10156 0.0117-0.22266-0.0547-0.25391"/>
  <path d="m164.09 15.789c-0.082 0.26172-0.25782 0.72656-0.57422 1.1875-0.47656 0.69531-1.4024 0.74609-2.6211 0.16406-0.44531-0.21484-2.6055-1.5703-5.875-1.5703-9.6484 0-12.734 8.3203-12.734 13.496 0 4.7617 2.4961 7.9883 2.8867 8.4492 0.0312 0.03906 0.0664 0.04297 0.0937 0.01172 0.14062-0.14844 0.55078-0.42578 1.1484-1.1719 0.46093-0.57812 0.59375-0.79297 0.80468-1.1523 0.0195-0.03516 0.0195-0.12109-4e-3 -0.16016-0.42188-1.1758-1.1211-3.1953-1.1211-6.0508 0-3.4297 0.80078-12.551 8.8906-12.551 8.0938 0 9.1523 7.75 9.168 7.8438 0.0156 0.09375 0.0469 0.21484 0.24218 0.21484 0.19532 0 0.23438-0.13672 0.23438-0.21484v-8.5117s-0.0156-0.20312-0.26953-0.20312c-0.125 0-0.22266 0.08203-0.26953 0.21875"/>
  <path d="m114.73 11.977h1.0117v-0.62109c0-0.11328-8e-3 -0.1875-0.0195-0.22266-0.0117-0.02344-0.0352-0.04687-0.0703-0.06641-0.043-0.02734-0.0937-0.03906-0.14453-0.03906h-0.0781v-0.05859h0.92969v0.05859h-0.0742c-0.0547 0-0.10157 0.01172-0.14844 0.03516-0.0312 0.01953-0.0547 0.04297-0.0703 0.07813-0.0117 0.03516-0.0156 0.10547-0.0156 0.21484v1.4023c0 0.10938 4e-3 0.18359 0.0195 0.21875 0.0117 0.02734 0.0312 0.04687 0.0664 0.06641 0.0469 0.02734 0.0937 0.03906 0.14844 0.03906h0.0742v0.05859h-0.92969v-0.05859h0.0781c0.0898 0 0.15235-0.02344 0.19532-0.07813 0.0234-0.03516 0.0391-0.11719 0.0391-0.24609v-0.66407h-1.0117v0.66406c0 0.10938 8e-3 0.18359 0.0234 0.21875 8e-3 0.02734 0.0312 0.04687 0.0664 0.06641 0.0469 0.02734 0.0937 0.03906 0.14453 0.03906h0.0781v0.05859h-0.92969v-0.05859h0.0781c0.0898 0 0.15234-0.02344 0.19531-0.07813 0.0234-0.03516 0.0391-0.11719 0.0391-0.24609v-1.4023c0-0.11328-8e-3 -0.1875-0.0234-0.22266-0.0117-0.02344-0.0312-0.04687-0.0664-0.06641-0.043-0.02734-0.0937-0.03906-0.14453-0.03906h-0.0781v-0.05859h0.92969v0.05859h-0.0781c-0.0508 0-0.0977 0.01172-0.14453 0.03516-0.0312 0.01953-0.0547 0.04297-0.0703 0.07813-0.0117 0.03516-0.0195 0.10547-0.0195 0.21484z"/>
  <path d="m118.13 11.035c-0.19532 0-0.35157 0.07031-0.46875 0.21875-0.14844 0.17578-0.22266 0.4375-0.22266 0.78906 0 0.35156 0.0781 0.625 0.23047 0.81641 0.11719 0.14453 0.26953 0.21875 0.46094 0.21875 0.20312 0 0.37109-0.07813 0.5039-0.23828 0.13672-0.16016 0.19922-0.41016 0.19922-0.75391 0-0.37109-0.0703-0.65234-0.21875-0.83203-0.11719-0.14453-0.27734-0.21875-0.48437-0.21875m0.0273-0.11719c0.28516 0 0.52734 0.10547 0.73438 0.32031 0.20703 0.21484 0.3125 0.48438 0.3125 0.80469 0 0.32812-0.10547 0.60156-0.31641 0.82031-0.20703 0.21875-0.46094 0.32812-0.75391 0.32812-0.30078 0-0.55078-0.10547-0.7539-0.32031-0.20313-0.21094-0.30469-0.48438-0.30469-0.82422 0-0.34375 0.11719-0.625 0.35156-0.84375 0.20313-0.19141 0.44922-0.28516 0.73047-0.28516"/>
  <path d="m121.76 10.969 0.0234 0.50781h-0.0625c-0.0117-0.08984-0.0273-0.15234-0.0469-0.19141-0.0352-0.0625-0.0781-0.10547-0.13282-0.13672-0.0547-0.03125-0.1289-0.04297-0.21875-0.04297h-0.30468v1.6602c0 0.13281 0.0156 0.21484 0.043 0.25 0.043 0.04297 0.10547 0.06641 0.1875 0.06641h0.0742v0.05859h-0.92187v-0.05859h0.0781c0.0937 0 0.15625-0.02734 0.19532-0.08203 0.0234-0.03516 0.0352-0.11328 0.0352-0.23438v-1.6602h-0.26172c-0.10156 0-0.17187 0.0078-0.21484 0.01953-0.0586 0.02344-0.10156 0.0625-0.14453 0.11719-0.0391 0.05859-0.0625 0.13672-0.0703 0.23438h-0.0586l0.0234-0.50781z"/>
  <path d="m123.08 11.086v1.6914c0 0.09766 4e-3 0.15625 0.0117 0.17969 8e-3 0.01953 0.0234 0.03516 0.0469 0.04687 0.0195 0.01563 0.0586 0.01953 0.12109 0.01953h0.36719c0.12109 0 0.21094-0.0078 0.26953-0.02734 0.0547-0.01563 0.10938-0.05078 0.16016-0.09766 0.0664-0.06641 0.13281-0.16797 0.20312-0.30078h0.0625l-0.1875 0.54297h-1.6758v-0.05859h0.0781c0.0508 0 0.10156-0.01172 0.14453-0.03516 0.0352-0.01953 0.0586-0.04297 0.0703-0.07813 0.0117-0.03125 0.0195-0.10547 0.0195-0.21094v-1.4102c0-0.14062-0.0156-0.22266-0.043-0.25781-0.0391-0.04297-0.10156-0.0625-0.1914-0.0625h-0.0781v-0.05859h1.6758l0.0234 0.47656h-0.0625c-0.0195-0.11328-0.0469-0.19531-0.0742-0.23828-0.0273-0.04297-0.0664-0.07422-0.12109-0.09766-0.043-0.01563-0.11719-0.02344-0.22656-0.02344z"/>
  <path d="m126.81 12.539 0.0508 0.01172-0.1836 0.58984h-1.6836v-0.05859h0.082c0.0898 0 0.15625-0.03125 0.19531-0.08984 0.0234-0.03516 0.0352-0.11328 0.0352-0.23828v-1.3984c0-0.14062-0.0156-0.22266-0.0469-0.25781-0.0391-0.04687-0.10156-0.07031-0.18359-0.07031h-0.082v-0.05859h0.98437v0.05859c-0.11718 0-0.19531 0.01172-0.24609 0.03125-0.0469 0.02344-0.0781 0.05078-0.0937 0.08594s-0.0234 0.11328-0.0234 0.24609v1.3633c0 0.08984 8e-3 0.15234 0.0234 0.18359 0.0117 0.02344 0.0312 0.03906 0.0586 0.05078 0.0273 0.01172 0.10938 0.01563 0.25 0.01563h0.16016c0.16406 0 0.28125-0.01172 0.35156-0.03906 0.0664-0.02344 0.12891-0.06641 0.1836-0.12891 0.0547-0.0625 0.10937-0.16016 0.16796-0.29688"/>
  <path d="m128.96 10.918v0.75391h-0.0586c-0.0195-0.14453-0.0547-0.26172-0.10547-0.34766-0.0469-0.08594-0.12109-0.15234-0.21094-0.20312-0.0937-0.05078-0.1875-0.07422-0.28515-0.07422-0.10938 0-0.20313 0.03516-0.27735 0.10156-0.0703 0.06641-0.10937 0.14453-0.10937 0.23047 0 0.06641 0.0234 0.12891 0.0703 0.18359 0.0664 0.07813 0.22266 0.18359 0.47266 0.32031 0.20312 0.10938 0.33984 0.19141 0.41797 0.25 0.0703 0.05859 0.1289 0.125 0.16796 0.20703 0.043 0.07813 0.0625 0.16016 0.0625 0.24609 0 0.16797-0.0664 0.30859-0.1914 0.42578-0.12891 0.12109-0.29297 0.17969-0.4961 0.17969-0.0625 0-0.12109-0.0039-0.17578-0.01563-0.0352-0.0039-0.10156-0.02344-0.20703-0.05859-0.10156-0.03125-0.16797-0.05078-0.19922-0.05078-0.0234 0-0.043 0.0078-0.0625 0.02734-0.0117 0.01563-0.0234 0.04687-0.0312 0.09766h-0.0625v-0.74609h0.0625c0.0273 0.15625 0.0625 0.27344 0.10938 0.35156 0.0469 0.07813 0.12109 0.14062 0.21484 0.19141 0.0977 0.05078 0.20313 0.07813 0.32031 0.07813 0.13282 0 0.23829-0.03516 0.31641-0.10547 0.0781-0.07031 0.11719-0.15234 0.11719-0.25 0-0.05469-0.0156-0.10547-0.0469-0.16016-0.0273-0.05859-0.0742-0.10938-0.13672-0.15625-0.0391-0.03125-0.15234-0.09766-0.33984-0.20312-0.1875-0.10547-0.3164-0.1875-0.39844-0.25-0.0781-0.0625-0.13671-0.12891-0.17578-0.20312-0.043-0.07422-0.0625-0.16016-0.0625-0.24609 0-0.15625 0.0586-0.29297 0.17969-0.40234 0.12109-0.11328 0.27344-0.17188 0.45703-0.17188 0.11328 0 0.23828 0.02734 0.36719 0.08594 0.0586 0.02734 0.10156 0.03906 0.125 0.03906 0.0273 0 0.0508-0.0078 0.0703-0.02344 0.0156-0.01563 0.0312-0.05078 0.043-0.10156z"/>
  <path d="m132.46 12.023h0.0547c0.0156 0.0039 0.0273 0.0039 0.0352 0.0039 0.21093 0 0.36328-0.04687 0.46875-0.13672 0.10547-0.08984 0.16015-0.20312 0.16015-0.34375 0-0.13281-0.043-0.24609-0.1289-0.33203-0.0859-0.08203-0.19532-0.125-0.33594-0.125-0.0625 0-0.14844 0.01172-0.25391 0.03125zm1.5469 1.1172h-0.58203l-0.73438-1.0156c-0.0547 0.0039-0.10156 0.0039-0.13281 0.0039h-0.0469c-0.0156 0-0.0312-0.0039-0.0508-0.0039v0.63281c0 0.13672 0.0195 0.22266 0.0469 0.25391 0.0391 0.04687 0.10156 0.07031 0.18359 0.07031h0.082v0.05859h-0.92968v-0.05859h0.082c0.0898 0 0.15625-0.03125 0.19531-0.08984 0.0234-0.03125 0.0352-0.10938 0.0352-0.23438v-1.4023c0-0.14062-0.0156-0.22656-0.043-0.25781-0.043-0.04687-0.10547-0.07031-0.1875-0.07031h-0.082v-0.05859h0.79296c0.23047 0 0.39844 0.01563 0.51172 0.05078 0.10547 0.03125 0.19922 0.09375 0.27735 0.18359 0.0742 0.09375 0.11328 0.19922 0.11328 0.32422 0 0.13281-0.043 0.25-0.12891 0.34766-0.0898 0.09766-0.22265 0.16797-0.40625 0.20703l0.44922 0.625c0.10156 0.14453 0.19141 0.23828 0.26563 0.28516 0.0742 0.04687 0.16796 0.07813 0.28906 0.08984z"/>
  <path d="m135.2 11.086v0.85938h0.47656c0.125 0 0.21094-0.01953 0.25-0.05469 0.0586-0.05078 0.0859-0.13672 0.0937-0.26172h0.0586v0.75781h-0.0586c-0.0156-0.10547-0.0312-0.17578-0.0469-0.20312-0.0195-0.03906-0.0469-0.06641-0.0937-0.08984-0.043-0.01953-0.10938-0.03125-0.20313-0.03125h-0.47656v0.71484c0 0.09766 4e-3 0.15625 0.0156 0.17969 8e-3 0.01953 0.0234 0.03516 0.043 0.04687 0.0234 0.01563 0.0625 0.01953 0.12109 0.01953h0.37109c0.1211 0 0.21094-0.0078 0.26563-0.02734 0.0547-0.01563 0.10937-0.05078 0.16015-0.09766 0.0664-0.06641 0.13672-0.16797 0.20313-0.30078h0.0664l-0.1875 0.54297h-1.6758v-0.05859h0.0781c0.0508 0 0.0977-0.01172 0.14453-0.03516 0.0352-0.01953 0.0586-0.04297 0.0703-0.07813 0.0117-0.03125 0.0156-0.10547 0.0156-0.21094v-1.4102c0-0.14062-0.0117-0.22266-0.0391-0.25781-0.0391-0.04297-0.10157-0.0625-0.19141-0.0625h-0.0781v-0.05859h1.6758l0.0234 0.47656h-0.0625c-0.0234-0.11328-0.0469-0.19531-0.0742-0.23828-0.0273-0.04297-0.0664-0.07422-0.12109-0.09766-0.043-0.01563-0.11719-0.02344-0.22656-0.02344z"/>
  <path d="m138.55 10.918v0.75391h-0.0625c-0.0195-0.14453-0.0508-0.26172-0.10156-0.34766-0.0508-0.08594-0.1211-0.15234-0.21094-0.20312-0.0937-0.05078-0.1875-0.07422-0.28516-0.07422-0.11328 0-0.20312 0.03516-0.27734 0.10156-0.0742 0.06641-0.10937 0.14453-0.10937 0.23047 0 0.06641 0.0234 0.12891 0.0703 0.18359 0.0664 0.07813 0.22265 0.18359 0.47265 0.32031 0.20313 0.10938 0.33985 0.19141 0.41407 0.25 0.0742 0.05859 0.13281 0.125 0.17187 0.20703 0.043 0.07813 0.0586 0.16016 0.0586 0.24609 0 0.16797-0.0625 0.30859-0.1875 0.42578-0.12891 0.12109-0.29297 0.17969-0.4961 0.17969-0.0625 0-0.12109-0.0039-0.17578-0.01563-0.0352-0.0039-0.10156-0.02344-0.20703-0.05859-0.10547-0.03125-0.16797-0.05078-0.19531-0.05078-0.0273 0-0.0469 0.0078-0.0664 0.02734-0.0156 0.01563-0.0273 0.04687-0.0312 0.09766h-0.0625v-0.74609h0.0625c0.0234 0.15625 0.0625 0.27344 0.10938 0.35156 0.0469 0.07813 0.11718 0.14062 0.21484 0.19141 0.0977 0.05078 0.20312 0.07813 0.32031 0.07813 0.13281 0 0.23828-0.03516 0.31641-0.10547 0.0781-0.07031 0.11328-0.15234 0.11328-0.25 0-0.05469-0.0117-0.10547-0.043-0.16016-0.0273-0.05859-0.0742-0.10938-0.13672-0.15625-0.043-0.03125-0.15625-0.09766-0.33984-0.20312-0.1875-0.10547-0.32031-0.1875-0.39844-0.25-0.0781-0.0625-0.13672-0.12891-0.17578-0.20312-0.043-0.07422-0.0625-0.16016-0.0625-0.24609 0-0.15625 0.0586-0.29297 0.17969-0.40234 0.12109-0.11328 0.26953-0.17188 0.45703-0.17188 0.11328 0 0.23828 0.02734 0.36719 0.08594 0.0586 0.02734 0.10156 0.03906 0.125 0.03906 0.0273 0 0.0508-0.0078 0.0664-0.02344 0.0195-0.01563 0.0352-0.05078 0.043-0.10156z"/>
  <path d="m140.57 11.035c-0.19531 0-0.35156 0.07031-0.46875 0.21875-0.14844 0.17578-0.21875 0.4375-0.21875 0.78906 0 0.35156 0.0742 0.625 0.22656 0.81641 0.11719 0.14453 0.26954 0.21875 0.46094 0.21875 0.20703 0 0.375-0.07813 0.50781-0.23828 0.13282-0.16016 0.19922-0.41016 0.19922-0.75391 0-0.37109-0.0742-0.65234-0.21875-0.83203-0.11718-0.14453-0.28125-0.21875-0.48828-0.21875m0.0312-0.11719c0.28125 0 0.52344 0.10547 0.73047 0.32031 0.20703 0.21484 0.3125 0.48438 0.3125 0.80469 0 0.32812-0.10547 0.60156-0.3125 0.82031-0.21094 0.21875-0.46094 0.32812-0.75781 0.32812-0.29688 0-0.55078-0.10547-0.75391-0.32031-0.20312-0.21094-0.30469-0.48438-0.30469-0.82422 0-0.34375 0.11719-0.625 0.35157-0.84375 0.20312-0.19141 0.44922-0.28516 0.73437-0.28516"/>
  <path d="m142.97 12.023h0.0547c0.0117 0.0039 0.0273 0.0039 0.0352 0.0039 0.20703 0 0.36328-0.04687 0.46875-0.13672 0.10547-0.08984 0.16016-0.20312 0.16016-0.34375 0-0.13281-0.043-0.24609-0.12891-0.33203-0.0859-0.08203-0.19922-0.125-0.33594-0.125-0.0625 0-0.14844 0.01172-0.2539 0.03125zm1.543 1.1172h-0.57812l-0.73828-1.0156c-0.0508 0.0039-0.0977 0.0039-0.12891 0.0039h-0.0469c-0.0156 0-0.0312-0.0039-0.0508-0.0039v0.63281c0 0.13672 0.0156 0.22266 0.0469 0.25391 0.0391 0.04687 0.10156 0.07031 0.17969 0.07031h0.0859v0.05859h-0.92969v-0.05859h0.082c0.0898 0 0.15625-0.03125 0.19531-0.08984 0.0234-0.03125 0.0352-0.10938 0.0352-0.23438v-1.4023c0-0.14062-0.0156-0.22656-0.0469-0.25781-0.0391-0.04687-0.10156-0.07031-0.18359-0.07031h-0.082v-0.05859h0.79297c0.23047 0 0.39843 0.01563 0.50781 0.05078 0.10937 0.03125 0.20312 0.09375 0.28125 0.18359 0.0742 0.09375 0.11328 0.19922 0.11328 0.32422 0 0.13281-0.043 0.25-0.12891 0.34766-0.0898 0.09766-0.22265 0.16797-0.40625 0.20703l0.44922 0.625c0.10157 0.14453 0.19141 0.23828 0.26563 0.28516 0.0742 0.04687 0.16797 0.07813 0.28515 0.08984z"/>
  <path d="m146.92 10.969 0.0234 0.50781h-0.0625c-0.0117-0.08984-0.0273-0.15234-0.0469-0.19141-0.0312-0.0625-0.0781-0.10547-0.13281-0.13672-0.0547-0.03125-0.125-0.04297-0.21875-0.04297h-0.30469v1.6602c0 0.13281 0.0156 0.21484 0.043 0.25 0.043 0.04297 0.10547 0.06641 0.1875 0.06641h0.0742v0.05859h-0.91797v-0.05859h0.0742c0.0937 0 0.16015-0.02734 0.19531-0.08203 0.0234-0.03516 0.0352-0.11328 0.0352-0.23438v-1.6602h-0.26172c-0.0977 0-0.17188 0.0078-0.21485 0.01953-0.0547 0.02344-0.10156 0.0625-0.14062 0.11719-0.043 0.05859-0.0664 0.13672-0.0703 0.23438h-0.0625l0.0273-0.50781z"/>
  <path d="m149.06 10.918v0.75391h-0.0625c-0.0195-0.14453-0.0508-0.26172-0.10156-0.34766-0.0508-0.08594-0.12109-0.15234-0.21484-0.20312-0.0898-0.05078-0.1836-0.07422-0.28516-0.07422-0.10937 0-0.20312 0.03516-0.27344 0.10156-0.0742 0.06641-0.10937 0.14453-0.10937 0.23047 0 0.06641 0.0234 0.12891 0.0703 0.18359 0.0625 0.07813 0.22266 0.18359 0.47266 0.32031 0.20312 0.10938 0.33984 0.19141 0.41406 0.25 0.0742 0.05859 0.13281 0.125 0.17187 0.20703 0.0391 0.07813 0.0586 0.16016 0.0586 0.24609 0 0.16797-0.0625 0.30859-0.19141 0.42578-0.125 0.12109-0.28906 0.17969-0.49219 0.17969-0.0625 0-0.12109-0.0039-0.17578-0.01563-0.0352-0.0039-0.10156-0.02344-0.20703-0.05859-0.10547-0.03125-0.16797-0.05078-0.19922-0.05078-0.0273 0-0.0469 0.0078-0.0625 0.02734-0.0156 0.01563-0.0273 0.04687-0.0352 0.09766h-0.0586v-0.74609h0.0586c0.0273 0.15625 0.0664 0.27344 0.11328 0.35156 0.0469 0.07813 0.12109 0.14062 0.21484 0.19141 0.0977 0.05078 0.20313 0.07813 0.32031 0.07813 0.13282 0 0.23829-0.03516 0.31641-0.10547 0.0781-0.07031 0.11328-0.15234 0.11328-0.25 0-0.05469-0.0156-0.10547-0.043-0.16016-0.0273-0.05859-0.0742-0.10938-0.13672-0.15625-0.043-0.03125-0.15625-0.09766-0.33984-0.20312-0.1875-0.10547-0.32031-0.1875-0.39844-0.25-0.0781-0.0625-0.13672-0.12891-0.17968-0.20312-0.0391-0.07422-0.0586-0.16016-0.0586-0.24609 0-0.15625 0.0586-0.29297 0.17969-0.40234 0.11719-0.11328 0.27344-0.17188 0.45703-0.17188 0.11328 0 0.23828 0.02734 0.36719 0.08594 0.0586 0.02734 0.10156 0.03906 0.125 0.03906 0.0273 0 0.0508-0.0078 0.0664-0.02344 0.0195-0.01563 0.0352-0.05078 0.043-0.10156z"/>
  <path d="m153.9 10.918 0.0586 0.6875h-0.0586c-0.0547-0.17188-0.12891-0.30078-0.21875-0.38672-0.12891-0.125-0.29688-0.1875-0.5-0.1875-0.27735 0-0.48438 0.10938-0.62891 0.32812-0.12109 0.18359-0.18359 0.40625-0.18359 0.66016 0 0.20703 0.0391 0.39844 0.12109 0.56641 0.0781 0.17188 0.18359 0.29688 0.31641 0.37891 0.1289 0.07813 0.26172 0.11719 0.39843 0.11719 0.0781 0 0.15625-0.0078 0.23438-0.03125 0.0742-0.01953 0.14453-0.04687 0.21484-0.08984v-0.625c0-0.10938-8e-3 -0.18359-0.0234-0.21875-0.0195-0.03125-0.043-0.05469-0.0781-0.07422-0.0352-0.01953-0.0977-0.02734-0.18359-0.02734v-0.05859h0.84375v0.05859h-0.043c-0.082 0-0.14063 0.02734-0.17188 0.08594-0.0195 0.03906-0.0312 0.11719-0.0312 0.23438v0.66405c-0.12109 0.06641-0.24218 0.11328-0.36328 0.14453-0.12109 0.03125-0.2539 0.04687-0.39844 0.04687-0.42187 0-0.73828-0.13281-0.95703-0.40234-0.16414-0.20312-0.24617-0.4375-0.24617-0.69921 0-0.19141 0.0469-0.375 0.13672-0.55078 0.10937-0.21094 0.25781-0.36719 0.44922-0.48047 0.16015-0.09375 0.34765-0.14062 0.5625-0.14062 0.082 0 0.15234 0.0078 0.21875 0.01953 0.0625 0.01172 0.15625 0.04297 0.27343 0.08594 0.0586 0.02344 0.0977 0.03125 0.1211 0.03125 0.0195 0 0.0352-0.0078 0.0508-0.02734 0.0156-0.01953 0.0234-0.05469 0.0273-0.10938z"/>
  <path d="m155.46 12.023h0.0547c0.0156 0.0039 0.0273 0.0039 0.0352 0.0039 0.20704 0 0.36329-0.04687 0.46875-0.13672 0.10547-0.08984 0.15625-0.20312 0.15625-0.34375 0-0.13281-0.0391-0.24609-0.125-0.33203-0.0859-0.08203-0.19531-0.125-0.33593-0.125-0.0625 0-0.14453 0.01172-0.25391 0.03125zm1.5469 1.1172h-0.58204l-0.73437-1.0156c-0.0586 0.0039-0.10156 0.0039-0.13281 0.0039h-0.0469c-0.0156 0-0.0312-0.0039-0.0508-0.0039v0.63281c0 0.13672 0.0156 0.22266 0.0469 0.25391 0.0391 0.04687 0.10156 0.07031 0.18359 0.07031h0.0859v0.05859h-0.9336v-0.05859h0.082c0.0937 0 0.15625-0.03125 0.19532-0.08984 0.0234-0.03125 0.0352-0.10938 0.0352-0.23438v-1.4023c0-0.14062-0.0156-0.22656-0.043-0.25781-0.043-0.04687-0.10546-0.07031-0.1875-0.07031h-0.082v-0.05859h0.78907c0.23437 0 0.40234 0.01563 0.51562 0.05078 0.10938 0.03125 0.20313 0.09375 0.27734 0.18359 0.0742 0.09375 0.11329 0.19922 0.11329 0.32422 0 0.13281-0.043 0.25-0.12891 0.34766-0.0898 0.09766-0.22266 0.16797-0.40625 0.20703l0.44922 0.625c0.10156 0.14453 0.1914 0.23828 0.26562 0.28516 0.0742 0.04687 0.16797 0.07813 0.28907 0.08984z"/>
  <path d="m158.67 11.035c-0.19531 0-0.35156 0.07031-0.46875 0.21875-0.14453 0.17578-0.21875 0.4375-0.21875 0.78906 0 0.35156 0.0742 0.625 0.22657 0.81641 0.11718 0.14453 0.27343 0.21875 0.46484 0.21875 0.20313 0 0.37109-0.07813 0.50391-0.23828 0.13281-0.16016 0.19922-0.41016 0.19922-0.75391 0-0.37109-0.0742-0.65234-0.21875-0.83203-0.11719-0.14453-0.28125-0.21875-0.48829-0.21875m0.0312-0.11719c0.28125 0 0.52735 0.10547 0.73438 0.32031 0.20703 0.21484 0.30859 0.48438 0.30859 0.80469 0 0.32812-0.10547 0.60156-0.3125 0.82031s-0.46093 0.32812-0.75781 0.32812c-0.29687 0-0.54687-0.10547-0.75391-0.32031-0.20312-0.21094-0.30468-0.48438-0.30468-0.82422 0-0.34375 0.11718-0.625 0.35156-0.84375 0.20703-0.19141 0.44922-0.28516 0.73437-0.28516"/>
  <path d="m162.73 10.969v0.05859c-0.0781 0.01563-0.13671 0.03906-0.17578 0.07422-0.0586 0.05078-0.10547 0.13281-0.15234 0.24219l-0.75781 1.8477h-0.0586l-0.8125-1.875c-0.043-0.09375-0.0742-0.15625-0.0898-0.17578-0.0273-0.03125-0.0586-0.05859-0.0977-0.07813-0.0391-0.01953-0.0937-0.03125-0.16015-0.03516v-0.05859h0.89062v0.05859c-0.10156 0.0078-0.16797 0.02734-0.19531 0.05078-0.0312 0.02734-0.0469 0.05859-0.0469 0.09375 0 0.05469 0.0273 0.13672 0.0742 0.25391l0.55469 1.2734 0.51172-1.2617c0.0508-0.12109 0.0742-0.20703 0.0742-0.25781 0-0.02734-0.0156-0.05859-0.0469-0.08594-0.0312-0.03125-0.082-0.05078-0.15625-0.0625-4e-3 0-0.0156 0-0.0273-0.0039v-0.05859z"/>
  <path d="m163.97 12.031c0.0586 0.01172 0.10937 0.01953 0.15234 0.02344 0.0469 0.0078 0.082 0.0078 0.11328 0.0078 0.10938 0 0.20703-0.04297 0.28906-0.125 0.0781-0.08984 0.1211-0.19922 0.1211-0.33594 0-0.09375-0.0195-0.18359-0.0586-0.26172-0.0391-0.08203-0.0937-0.14062-0.16406-0.18359-0.0703-0.03906-0.14844-0.05859-0.24219-0.05859-0.0508 0-0.125 0.01172-0.21093 0.03125zm0 0.09375v0.63281c0 0.13672 0.0195 0.21875 0.0469 0.25391 0.0391 0.04687 0.10156 0.07031 0.18359 0.07031h0.0859v0.05859h-0.93359v-0.05859h0.082c0.0937 0 0.15625-0.02734 0.19922-0.08984 0.0195-0.03125 0.0312-0.10938 0.0312-0.23438v-1.4062c0-0.13672-0.0156-0.22266-0.043-0.25391-0.043-0.04687-0.10547-0.07031-0.1875-0.07031h-0.082v-0.05859h0.79687c0.19532 0 0.34766 0.01953 0.46094 0.05859 0.11328 0.04297 0.20703 0.10938 0.28516 0.20312 0.0742 0.09766 0.11328 0.20703 0.11328 0.33984 0 0.17578-0.0586 0.32031-0.17578 0.43359-0.11719 0.10938-0.28125 0.16406-0.4961 0.16406-0.0508 0-0.10937-0.0039-0.16797-0.01172-0.0625-0.0078-0.1289-0.01953-0.19921-0.03125"/>
  <path d="m130.04 12.195 0.42187 0.42188 0.41797-0.42188-0.41797-0.42188z"/>
  <path d="m150.18 12.195 0.42187 0.42188 0.41797-0.42188-0.41797-0.42188z"/>
  <path d="m164.34 35.441c-1.4531 1.9453-2.8516 3.0547-4.082 3.7383-1.2969 0.72266-2.8125 1.0859-4.5 1.0859-1.9414 0-3.6914-0.46484-5.2109-1.3789-0.14843-0.08984-0.2539-0.17188-0.40234-0.25781-0.0586-0.03516-0.12109-0.05859-0.19531 0.01172-0.51953 0.46875-1.0625 0.91016-1.6484 1.3672-0.0664 0.05469-0.0195 0.10938 0.0352 0.14062 1.7226 0.96094 3.8047 1.4531 6.1055 1.4531 2.2852 0 4.2852-0.51562 5.9414-1.5312 1.5938-0.97656 2.9648-2.3711 4.1836-4.4297 0.0703-0.12109 0.0742-0.25391 0-0.29688-0.1211-0.07031-0.20313 0.0625-0.22657 0.09766"/>
  <path d="m149.8 19.312c-0.66796 0.69141-1.2539 1.5312-1.7344 2.5312-0.10156 0.20703-0.0547 0.38281-0.0273 0.44141 0.86718 1.7617 1.3906 4.0234 1.3906 6.4219 0 2.6875-0.55469 4.9922-1.6523 6.8789-4e-3 0.0039-4e-3 0.0078-8e-3 0.0078-0.0937 0.16406-0.1875 0.32031-0.29296 0.47656-8e-3 0.0078-0.0117 0.01953-0.0195 0.03125-0.0937 0.14453-0.19921 0.28906-0.30078 0.42969-0.0156 0.01953-0.0273 0.03906-0.0391 0.05859-0.0977 0.12891-0.19922 0.25391-0.30078 0.37891-0.0234 0.02734-0.0469 0.05469-0.0664 0.08203-0.125 0.14844-0.2539 0.29297-0.38672 0.43359-0.11328 0.11719-0.22656 0.23047-0.33984 0.33984-0.0508 0.05078-0.10547 0.10156-0.16016 0.14844-0.0312 0.03125-0.0625 0.0625-0.0977 0.09375h-4e-3c-1.9414 1.7695-4.3242 2.5625-7.1289 2.5625-0.71094 0-1.5352-0.06641-2.6797-0.21484-0.0586-0.0078-0.14453 0.02734-0.17969 0.09766-0.0625 0.12891-0.36719 0.78125-0.42578 0.9375-0.043 0.12109 0.0117 0.15234 0.0742 0.15234h3.3203c5.0664 0 8.8867-1.3633 11.352-4.0469 2.1953-2.4062 3.3086-5.4492 3.3086-9.043 0-2.6797-0.625-5.0742-1.8594-7.1172-0.41797-0.69531-0.96875-1.4922-1.4883-2.0625-0.043-0.04687-0.13672-0.14062-0.25391-0.01953"/>
  <path d="m137.32 35.129c-0.49219 1.2148-2.5469 5.9102-2.6484 6.1094-0.12891 0.25391-0.32422 0.36328-0.63672 0.36328h-19.703c-0.0508 0-0.21485-0.01172-0.21485-0.17969 0-0.16406 0.16797-0.17578 0.21485-0.17969h0.53906c1.2226 0 2.1133-0.40234 2.6484-1.2031 0.30859-0.46094 0.45703-1.4492 0.45703-3.0195v-17.023c0-1.7266-0.20313-2.6602-0.61719-3.1289-0.5625-0.62109-1.3984-0.9375-2.4883-0.9375h-0.57422c-0.0977 0-0.17969-0.08203-0.17969-0.17969 0-0.10156 0.082-0.17969 0.17969-0.17969h11.289c0.0937 0 0.17188 0.07422 0.17578 0.16406 4e-3 0.0039 4e-3 0.0078 4e-3 0.01563 0 0.0039 0 0.0078-4e-3 0.01172-4e-3 0.09375-0.082 0.16797-0.17578 0.16797-1.25 0.01172-2.125 0.14844-2.6758 0.41406-0.625 0.29297-1.0586 0.67969-1.2969 1.1445-0.23047 0.45312-0.34375 0.88281-0.34375 2.5078v17.16c0 2.8164 1.8867 3.5078 4.5508 3.5078 2.6602 0 4.2266 0.0625 5.9531-0.51172 2.0156-0.66797 4.0195-3.3945 4.8398-5.0156 0.0664-0.12891 0.19922-0.27734 0.42969-0.27734 0.23438 0 0.33594 0.12891 0.27735 0.26953"/>
  <path d="m147.3 16.938c-0.0937-0.04297-2.4844-1.25-9.0195-1.3594-0.0156-0.0039-0.0273-0.0078-0.043-0.0078h-11.316c-0.0977 0-0.17969 0.07813-0.17969 0.17969 0 0.09766 0.082 0.17578 0.17969 0.17578h0.60546c1.0859 0 1.9219 0.32031 2.4844 0.94531 0.41797 0.46484 0.61719 1.3984 0.61719 3.125v19.664c0 0.10938 0.0859 0.12891 0.14062 0.11719 0.41406-0.08594 2.1055-0.97266 3.1055-2.0352 0.0156-0.01172 0.0469-0.08203 0.0469-0.15625 0-0.07813 4e-3 -18.102 0.0117-18.312v0.19141c0-1.4102 1.8516-2.7852 5.4961-2.7852 3.2852 0 5.2344 1.6992 5.7852 2.168 0.10938 0.08984 0.1875 0.05078 0.26953-0.01953 0.0195-0.01563 0.45313-0.44141 0.88282-0.82031 0.41406-0.36719 0.96875-0.78906 0.98828-0.81641 0.0781-0.10156 0.0117-0.22266-0.0547-0.25391"/>
  <path d="m164.09 15.789c-0.082 0.26172-0.25782 0.72656-0.57422 1.1875-0.47656 0.69531-1.4024 0.74609-2.6211 0.16406-0.44531-0.21484-2.6055-1.5703-5.875-1.5703-9.6484 0-12.734 8.3203-12.734 13.496 0 4.7617 2.4961 7.9883 2.8867 8.4492 0.0312 0.03906 0.0664 0.04297 0.0937 0.01172 0.14062-0.14844 0.55078-0.42578 1.1484-1.1719 0.46093-0.57812 0.59375-0.79297 0.80468-1.1523 0.0195-0.03516 0.0195-0.12109-4e-3 -0.16016-0.42188-1.1758-1.1211-3.1953-1.1211-6.0508 0-3.4297 0.80078-12.551 8.8906-12.551 8.0938 0 9.1523 7.75 9.168 7.8438 0.0156 0.09375 0.0469 0.21484 0.24218 0.21484 0.19532 0 0.23438-0.13672 0.23438-0.21484v-8.5117s-0.0156-0.20312-0.26953-0.20312c-0.125 0-0.22266 0.08203-0.26953 0.21875"/>
 </g>
</svg>
